<svg viewBox="0 0 400 300" preserveAspectRatio="xMidYMid slice" xmlns="http://www.w3.org/2000/svg"><style>.pcb{fill:none;stroke:#b8a794;stroke-width:3;stroke-linecap:round;stroke-linejoin:round}.via{fill:#f6ecdd;stroke:#b8a794;stroke-width:2.5}.sig{fill:none;stroke:#ff7a45;stroke-width:3.4;stroke-linecap:round;stroke-dasharray:.07 .93;stroke-dashoffset:1;animation:sig var(--d) linear var(--delay) infinite}.chip-pin{fill:#8a7663}.chip-body{fill:#251a16}.chip-die{fill:none;stroke:#f6ecdd;stroke-opacity:.18;stroke-width:1.5}.chip-dot{fill:#f6ecdd;fill-opacity:.35}.chip-u,.chip-u-glow{fill:none;stroke:#ff7a45;stroke-width:11;stroke-linejoin:miter;stroke-linecap:butt}.chip-u-glow{stroke-width:18;opacity:.35;animation:glow 2.8s ease-in-out infinite}.chip-u2{fill:none;stroke:#ff7a45;stroke-width:3;stroke-opacity:.7}.chip-pad{fill:#ff7a45}.chip-hole{fill:#251a16}@keyframes sig{from{stroke-dashoffset:1}to{stroke-dashoffset:0}}@keyframes glow{0%,100%{opacity:.18}50%{opacity:.5}}@media (prefers-reduced-motion:reduce){.sig{animation:none;opacity:0}.chip-u-glow{animation:none}}</style><defs><filter id="chip-glow" x="-50%" y="-50%" width="200%" height="200%"><feGaussianBlur stdDeviation="6" /></filter></defs><g class="pcb-g"><path class="pcb" pathLength="1" d="M150 68 L150 56 L75 -19 L75 -12" /><path class="pcb" pathLength="1" d="M170 68 L170 56 L125 11 L125 -12" /><path class="pcb" pathLength="1" d="M190 68 L190 56 L175 41 L175 -12" /><path class="pcb" pathLength="1" d="M210 68 L210 56 L225 41 L225 -12" /><path class="pcb" pathLength="1" d="M230 68 L230 56 L275 11 L275 -12" /><path class="pcb" pathLength="1" d="M250 68 L250 56 L325 -19 L325 -12" /><path class="pcb" pathLength="1" d="M150 232 L150 244 L75 319 L75 312" /><path class="pcb" pathLength="1" d="M170 232 L170 244 L125 289 L125 312" /><path class="pcb" pathLength="1" d="M190 232 L190 244 L175 259 L175 312" /><path class="pcb" pathLength="1" d="M210 232 L210 244 L225 259 L225 312" /><path class="pcb" pathLength="1" d="M230 232 L230 244 L275 289 L275 312" /><path class="pcb" pathLength="1" d="M250 232 L250 244 L325 319 L325 312" /><path class="pcb" pathLength="1" d="M118 100 L104 100 L39 35 L-12 35" /><path class="pcb" pathLength="1" d="M118 120 L104 120 L65 81 L35 81" /><path class="pcb" pathLength="1" d="M118 140 L104 140 L91 127 L-12 127" /><path class="pcb" pathLength="1" d="M118 160 L104 160 L91 173 L-12 173" /><path class="pcb" pathLength="1" d="M118 180 L104 180 L65 219 L-12 219" /><path class="pcb" pathLength="1" d="M118 200 L104 200 L39 265 L-12 265" /><path class="pcb" pathLength="1" d="M282 100 L296 100 L361 35 L412 35" /><path class="pcb" pathLength="1" d="M282 120 L296 120 L335 81 L412 81" /><path class="pcb" pathLength="1" d="M282 140 L296 140 L309 127 L412 127" /><path class="pcb" pathLength="1" d="M282 160 L296 160 L309 173 L412 173" /><path class="pcb" pathLength="1" d="M282 180 L296 180 L335 219 L365 219" /><path class="pcb" pathLength="1" d="M282 200 L296 200 L361 265 L412 265" /></g><g class="via-g"><circle class="via" cx="35" cy="81" r="4.5" /><circle class="via" cx="365" cy="219" r="4.5" /></g><g class="sig-g"><path class="sig" pathLength="1" style="--d:2.2s;--delay:0.00s" d="M170 68 L170 56 L125 11 L125 -12" /><path class="sig" pathLength="1" style="--d:2.6s;--delay:0.61s" d="M230 68 L230 56 L275 11 L275 -12" /><path class="sig" pathLength="1" style="--d:2.9s;--delay:1.22s" d="M150 232 L150 244 L75 319 L75 312" /><path class="sig" pathLength="1" style="--d:3.3s;--delay:1.83s" d="M210 232 L210 244 L225 259 L225 312" /><path class="sig" pathLength="1" style="--d:2.3s;--delay:0.04s" d="M118 100 L104 100 L39 35 L-12 35" /><path class="sig" pathLength="1" style="--d:2.7s;--delay:0.65s" d="M118 180 L104 180 L65 219 L-12 219" /><path class="sig" pathLength="1" style="--d:3.0s;--delay:1.26s" d="M282 120 L296 120 L335 81 L412 81" /><path class="sig" pathLength="1" style="--d:3.4s;--delay:1.87s" d="M282 200 L296 200 L361 265 L412 265" /></g><g class="chip-pins"><rect class="chip-pin" x="146" y="68" width="8" height="12" /><rect class="chip-pin" x="146" y="220" width="8" height="12" /><rect class="chip-pin" x="166" y="68" width="8" height="12" /><rect class="chip-pin" x="166" y="220" width="8" height="12" /><rect class="chip-pin" x="186" y="68" width="8" height="12" /><rect class="chip-pin" x="186" y="220" width="8" height="12" /><rect class="chip-pin" x="206" y="68" width="8" height="12" /><rect class="chip-pin" x="206" y="220" width="8" height="12" /><rect class="chip-pin" x="226" y="68" width="8" height="12" /><rect class="chip-pin" x="226" y="220" width="8" height="12" /><rect class="chip-pin" x="246" y="68" width="8" height="12" /><rect class="chip-pin" x="246" y="220" width="8" height="12" /><rect class="chip-pin" x="118" y="96" width="12" height="8" /><rect class="chip-pin" x="270" y="96" width="12" height="8" /><rect class="chip-pin" x="118" y="116" width="12" height="8" /><rect class="chip-pin" x="270" y="116" width="12" height="8" /><rect class="chip-pin" x="118" y="136" width="12" height="8" /><rect class="chip-pin" x="270" y="136" width="12" height="8" /><rect class="chip-pin" x="118" y="156" width="12" height="8" /><rect class="chip-pin" x="270" y="156" width="12" height="8" /><rect class="chip-pin" x="118" y="176" width="12" height="8" /><rect class="chip-pin" x="270" y="176" width="12" height="8" /><rect class="chip-pin" x="118" y="196" width="12" height="8" /><rect class="chip-pin" x="270" y="196" width="12" height="8" /></g><g class="chip-core"><rect class="chip-body" x="130" y="80" width="140" height="140" /><rect class="chip-die" x="142" y="92" width="116" height="116" /><circle class="chip-dot" cx="152" cy="102" r="4" /><path class="chip-u-glow" d="M168 110 L168 166 L186 184 L214 184 L232 166 L232 110" filter="url(#chip-glow)" /><path class="chip-u" pathLength="1" d="M168 110 L168 166 L186 184 L214 184 L232 166 L232 110" /><path class="chip-u2" pathLength="1" d="M183 118 L183 158 L193 168 L207 168 L217 158 L217 118" /><circle class="chip-pad" cx="168" cy="110" r="8" /><circle class="chip-hole" cx="168" cy="110" r="3" /><circle class="chip-pad" cx="232" cy="110" r="8" /><circle class="chip-hole" cx="232" cy="110" r="3" /></g></svg>